<?xml version="1.0" encoding="utf-8"?>
<!-- Svg Vector Icons : http://www.onlinewebfonts.com/icon -->
<!DOCTYPE svg PUBLIC "-//W3C//DTD SVG 1.1//EN" "http://www.w3.org/Graphics/SVG/1.1/DTD/svg11.dtd">
<svg version="1.1" xmlns="http://www.w3.org/2000/svg" xmlns:xlink="http://www.w3.org/1999/xlink" x="0px" y="0px" viewBox="0 0 1000 1000" enable-background="new 0 0 1000 1000" xml:space="preserve">
<metadata> Svg Vector Icons : http://www.onlinewebfonts.com/icon </metadata>
<g><g transform="translate(0.000000,511.000000) scale(0.100000,-0.100000)"><path d="M4529.2,4977.7c-269.6-55.6-545.7-166.9-757.6-303.9c-432.3-278.2-695.5-742.6-828.2-1446.6c-36.4-196.9-47.1-372.4-62.1-988.7c-23.5-1010.1-79.2-1361.1-282.5-1748.4c-96.3-106.2-267.5-361.7-391.6-402.3c-40.7-12.9-74.9-32.1-74.9-42.8c0-8.6,42.8-51.4,96.3-96.3c329.6-267.5,764-413,1397.4-464.4l325.3-25.7V-841v-301.7l273.9-952.3c151.9-524.3,385.2-1335.4,520-1801.9c134.8-468.6,248.2-851.7,254.7-851.7s258.9,802.5,562.8,1782.6l550,1780.5v338.1v336h147.7c599.2,0,1322.5,222.5,1622.1,496.5l47.1,44.9l-122,79.2c-246.1,158.3-421.6,421.6-522.2,783.3c-42.8,156.2-47.1,205.4-38.5,661.3c15,990.8,10.7,1474.5-19.3,1637.1c-51.3,299.6-130.5,567.1-231.1,770.4C6776.2,4406.3,6406,4643.9,5933,4646c-113.4,0-134.8,8.5-233.3,85.6C5398,4971.3,4955.1,5065.5,4529.2,4977.7z"/><path d="M3298.7-1232.6c-139.1-92-453.7-214-866.7-333.8c-385.2-113.4-806.8-284.6-982.3-402.3c-141.2-94.2-239.7-209.7-325.3-380.9c-92-184-102.7-273.9-104.9-783.2v-472.9l92-87.8c487.9-470.8,1543-832.5,2936.1-1012.2c378.8-49.2,907.4-94.2,922.3-79.2c6.4,4.3-214,336-485.8,734c-271.8,400.2-594.9,873.2-719,1052.9c-122,177.6-226.8,325.3-233.3,325.3c-4.3,0-175.5-23.6-374.5-55.7c-201.2-30-370.2-49.2-374.5-44.9c-4.3,4.3,137,365.9,312.4,806.8c175.5,440.8,318.9,800.4,314.6,802.5C3407.8-1162,3358.6-1191.9,3298.7-1232.6z"/><path d="M6583.6-1159.8c0-2.1,143.4-366,321-806.8c175.5-438.7,316.7-802.5,312.4-806.8c-4.3-4.3-173.3,15-374.5,44.9c-199,32.1-368.1,55.7-374.5,55.7c-6.4,0-173.3-237.6-372.3-528.6C5271.8-4404.1,5021.4-4774.3,5021.4-4785c0-25.7,793.9,53.5,1241.2,122c1221.9,188.3,2133.6,520,2600.1,945.9l117.7,107v475.1c0,258.9-10.7,515.7-23.5,569.2c-36.4,162.6-147.7,359.5-271.8,483.6c-177.6,177.6-594.9,368.1-1170.6,530.7c-357.4,102.7-676.2,226.9-817.5,321C6635-1189.8,6583.6-1157.7,6583.6-1159.8z"/></g></g>
</svg>